<?xml version="1.0" encoding="UTF-8" standalone="no"?>
<svg
   xmlns:dc="http://purl.org/dc/elements/1.1/"
   xmlns:cc="http://creativecommons.org/ns#"
   xmlns:rdf="http://www.w3.org/1999/02/22-rdf-syntax-ns#"
   xmlns:svg="http://www.w3.org/2000/svg"
   xmlns="http://www.w3.org/2000/svg"
   xmlns:sodipodi="http://sodipodi.sourceforge.net/DTD/sodipodi-0.dtd"
   xmlns:inkscape="http://www.inkscape.org/namespaces/inkscape"
   width="210mm"
   height="297mm"
   viewBox="0 0 210 297"
   version="1.1"
   id="svg958"
   inkscape:version="1.0.2-2 (e86c870879, 2021-01-15)"
   sodipodi:docname="drawing.svg">
  <defs
     id="defs952" />
  <sodipodi:namedview
     id="base"
     pagecolor="#ffffff"
     bordercolor="#666666"
     borderopacity="1.0"
     inkscape:pageopacity="0.0"
     inkscape:pageshadow="2"
     inkscape:zoom="0.35"
     inkscape:cx="400"
     inkscape:cy="557.14286"
     inkscape:document-units="mm"
     inkscape:current-layer="layer1"
     inkscape:document-rotation="0"
     showgrid="false"
     inkscape:window-width="1770"
     inkscape:window-height="993"
     inkscape:window-x="304"
     inkscape:window-y="304"
     inkscape:window-maximized="0" />
  <metadata
     id="metadata955">
    <rdf:RDF>
      <cc:Work
         rdf:about="">
        <dc:format>image/svg+xml</dc:format>
        <dc:type
           rdf:resource="http://purl.org/dc/dcmitype/StillImage" />
        <dc:title></dc:title>
      </cc:Work>
    </rdf:RDF>
  </metadata>
  <g
     inkscape:label="Layer 1"
     inkscape:groupmode="layer"
     id="layer1">
    <g
       id="g876"
       transform="matrix(0.26458333,0,0,0.26458333,-179.91666,-42.333331)">
      <rect
         style="opacity:0.25;fill:#cccccc"
         id="rect22"
         width="2160"
         height="1440"
         x="0"
         y="0" />
      <g
         style="clip-rule:evenodd;fill:#cccccc;fill-rule:evenodd;stroke-linejoin:round;stroke-miterlimit:2"
         id="g868"
         transform="matrix(0.65252468,0,0,0.65252468,912.95401,552.95368)">
        <path
           d="M 501.303,132.765 C 495.416,110.735 478.068,93.388 456.038,87.5 416.106,76.8 256,76.8 256,76.8 256,76.8 95.893,76.8 55.961,87.5 33.935,93.388 16.584,110.735 10.697,132.765 0,172.693 0,256.003 0,256.003 c 0,0 0,83.308 10.697,123.232 5.887,22.03 23.238,39.382 45.264,45.269 C 95.893,435.2 256,435.2 256,435.2 c 0,0 160.106,0 200.038,-10.696 22.03,-5.887 39.378,-23.239 45.265,-45.269 10.696,-39.924 10.696,-123.232 10.696,-123.232 0,0 0,-83.31 -10.696,-123.238 z M 204.797,332.804 V 179.201 l 133.019,76.802 z"
           style="fill:#cccccc;fill-rule:nonzero"
           id="path857" />
      </g>
    </g>
  </g>
</svg>
